<svg xmlns="http://www.w3.org/2000/svg" viewBox="0 0 240 80">
  <defs>
    <linearGradient id="logo-grad" x1="0%" y1="0%" x2="100%" y2="100%">
      <stop offset="0%" style="stop-color:#4B2E2B;stop-opacity:1" />
      <stop offset="100%" style="stop-color:#6D4C41;stop-opacity:1" />
    </linearGradient>
    <style>
      @import url('https://fonts.googleapis.com/css2?family=Playfair+Display:ital,wght@0,700;1,700&amp;family=Montserrat:wght@500;700&amp;display=swap');
    </style>
  </defs>
  <!-- Minimalist Nail/Sparkle Icon -->
  <g transform="translate(15, 10)">
    <path d="M25 5 C35 5 42 15 42 30 L42 55 C42 62 38 65 30 65 L20 65 C12 65 8 62 8 55 L8 30 C8 15 15 5 25 5Z" fill="url(#logo-grad)"/>
    <path d="M20 28 C20 22 24 18 30 18" stroke="white" stroke-width="2.5" stroke-linecap="round" opacity="0.3" fill="none"/>
    <!-- Premium Sparkle -->
    <path d="M50 15 L50 25 M45 20 L55 20" stroke="#A1887F" stroke-width="2" stroke-linecap="round"/>
    <circle cx="58" cy="12" r="1.5" fill="#A1887F"/>
  </g>
  <!-- Text Content -->
  <text x="75" y="42" font-family="'Playfair Display', serif" font-weight="700" font-size="32" fill="#4B2E2B">
    Tessy <tspan font-style="italic" font-weight="400" fill="#6D4C41">Nails</tspan>
  </text>
  <text x="75" y="60" font-family="'Montserrat', sans-serif" font-weight="700" font-size="8" fill="#A1887F" letter-spacing="4">
    STUDIO DE BELEZA PREMIUM
  </text>
</svg>
